<?xml version="1.0" encoding="UTF-8" standalone="no"?>
<svg
   xmlns:dc="http://purl.org/dc/elements/1.1/"
   xmlns:cc="http://creativecommons.org/ns#"
   xmlns:rdf="http://www.w3.org/1999/02/22-rdf-syntax-ns#"
   xmlns:svg="http://www.w3.org/2000/svg"
   xmlns="http://www.w3.org/2000/svg"
   xmlns:sodipodi="http://sodipodi.sourceforge.net/DTD/sodipodi-0.dtd"
   xmlns:inkscape="http://www.inkscape.org/namespaces/inkscape"
   version="1.1"
   id="svg1564"
   width="1920"
   height="1114"
   viewBox="0 0 1920 1114"
   sodipodi:docname="banner-bgf.svg"
   inkscape:version="1.0.2 (e86c870879, 2021-01-15)">
  <metadata
     id="metadata1570">
    <rdf:RDF>
      <cc:Work
         rdf:about="">
        <dc:format>image/svg+xml</dc:format>
        <dc:type
           rdf:resource="http://purl.org/dc/dcmitype/StillImage" />
        <dc:title />
      </cc:Work>
    </rdf:RDF>
  </metadata>
  <defs
     id="defs1568" />
  <sodipodi:namedview
     pagecolor="#ffffff"
     bordercolor="#666666"
     borderopacity="1"
     objecttolerance="10"
     gridtolerance="10"
     guidetolerance="10"
     inkscape:pageopacity="0"
     inkscape:pageshadow="2"
     inkscape:window-width="1920"
     inkscape:window-height="1007"
     id="namedview1566"
     showgrid="false"
     inkscape:zoom="0.42757863"
     inkscape:cx="974.07465"
     inkscape:cy="611.01903"
     inkscape:window-x="1600"
     inkscape:window-y="0"
     inkscape:window-maximized="1"
     inkscape:current-layer="g1572"
     inkscape:document-rotation="0" />
  <g
     inkscape:groupmode="layer"
     inkscape:label="Image"
     id="g1572">
    <path
       style="opacity:1;fill:#d6e3ff;fill-opacity:0.67843139;stroke-width:5.91114"
       d="m -356.11716,50.3761 -0.59845,-317.7878 52.89322,8.176 c 147.6456,22.8226 339.446336,66.6328 460.42074,105.1673 99.78445,31.785 110.34288,35.8086 164.05141,62.5174 100.05908,49.7586 134.29907,85.9325998 134.21863,141.7994 -0.11773,81.7455 -113.89342,152.5959 -352.41563,219.4568 -134.754714,37.77343 -174.265744,46.38633 -418.06815,91.13473 l -39.90308,7.3243 z"
       id="path1580" />
    <path
       style="opacity:1;fill:#d6e3ff;fill-opacity:0.67843139;stroke-width:1.66863"
       d="m 1705.6548,744.15339 c -26.8303,-2.7296 -39.6586,-4.583 -59.8281,-8.6435 -42.632,-8.5827 -93.5107,-27.5382 -124.2583,-46.2941 -21.8681,-13.3394 -19.5265,-11.6536 -58.9077,-42.4085 -136.5822,-106.6644 -189.1152,-152.5008 -271.5274,-236.91448 -3.5436,-3.6297 -14.3126,-14.5308 -23.9312,-24.2246 -9.6185,-9.6939 -20.093,-20.304 -23.2767,-23.5781 -24.2663,-24.9558 -102.1515,-103.7443 -144.00573,-145.6761 C 951.27093,167.67533 928.00079,141.90342 904.81822,111.08839 861.31132,53.25759 836.655,-3.1648202 832.27457,-54.91725 c -4.65731,-55.02365 11.13668,-104.91334 47.41901,-149.78615 10.19875,-12.61345 32.20882,-34.10575 44.83488,-43.78017 l 9.37631,-7.18436 h 600.79583 600.7958 v 459.70839 459.70823 l -34.5161,13.8386 c -41.1089,16.4818 -36.374,14.7317 -64.8905,23.9863 -114.7084,37.2272 -233.099,52.4829 -330.435,42.5798 z"
       id="path1576"
       inkscape:export-xdpi="96"
       inkscape:export-ydpi="96" />
    <path
       style="opacity:1;fill:#d6e3ff;fill-opacity:0.67843139;stroke-width:14.7315"
       d="m 558.39815,691.67886 c 256.11901,-15.31614 757.13095,59.69507 1176.25395,182.74968 201.2885,59.09882 460.5729,180.89186 490.1563,205.18506 13.1126,10.7675 -481.5716,81.6397 -1127.4887,161.5322 L -53.530804,1383.494 -63.743924,1334.7592 C -142.2834,959.98382 90.197976,719.67902 558.39944,691.67954 Z"
       id="path1578"
       sodipodi:nodetypes="cssccscc"
       inkscape:export-xdpi="96"
       inkscape:export-ydpi="96" />
  </g>
</svg>
