<?xml version="1.0" encoding="UTF-8" standalone="no"?>
<svg
   xmlns:dc="http://purl.org/dc/elements/1.1/"
   xmlns:cc="http://creativecommons.org/ns#"
   xmlns:rdf="http://www.w3.org/1999/02/22-rdf-syntax-ns#"
   xmlns:svg="http://www.w3.org/2000/svg"
   xmlns="http://www.w3.org/2000/svg"
   version="1.1"
   id="Capa_1"
   x="0px"
   y="0px"
   viewBox="0 0 511.988 511.988"
   style="enable-background:new 0 0 511.988 511.988; fill:#bbb"
   xml:space="preserve"><metadata
   id="metadata73"><rdf:RDF><cc:Work
       rdf:about=""><dc:format>image/svg+xml</dc:format><dc:type
         rdf:resource="http://purl.org/dc/dcmitype/StillImage" /><dc:title></dc:title></cc:Work></rdf:RDF></metadata><defs
   id="defs71" />


<g
   id="g910"
   transform="translate(-0.39545026)"><path
     style="stroke-width:0"
     d="m 186.81856,179.44595 c -2.94618,-1.79654 -8.27774,-9.92621 -11.04966,-16.84876 -3.29898,-8.23882 -4.44991,-14.58781 -4.42248,-24.39623 0.0407,-14.54585 3.25682,-24.17242 12.69331,-37.99365 5.3561,-7.844849 7.41467,-13.660935 8.01469,-22.643988 0.6493,-9.720754 -1.70636,-19.102957 -6.63532,-26.427357 -3.79637,-5.641383 -4.36363,-8.340552 -2.59376,-12.341637 1.75957,-3.977805 5.02168,-6.20792 9.08065,-6.20792 5.53034,0 9.64892,4.09429 14.76107,14.674023 4.49176,9.295839 5.85367,15.555876 5.9198,27.210552 0.0866,15.270178 -2.80553,24.436469 -11.92416,37.791717 -5.38124,7.88144 -7.1881,12.22355 -8.39231,20.16773 -1.55541,10.26113 0.83108,21.30901 6.47723,29.98533 3.34621,5.14205 3.86722,6.76271 3.2433,10.08849 -1.27381,6.79 -9.35659,10.48807 -15.17236,6.9417 z"
     id="path898" /><path
     style="stroke-width:0"
     d="m 251.22267,179.65719 c -1.24581,-0.61443 -3.5397,-2.94326 -5.09753,-5.17518 -8.10838,-11.6169 -11.42851,-23.82344 -10.69614,-39.32458 0.60733,-12.85455 4.41427,-24.04399 11.26758,-33.11786 7.17893,-9.505009 9.62979,-17.517348 9.08993,-29.716789 -0.41435,-9.363364 -2.00748,-14.53643 -6.65665,-21.614932 -2.53683,-3.862386 -3.1608,-5.438448 -3.1608,-7.983755 0,-6.367832 4.919,-10.662362 11.37943,-9.934811 2.83131,0.318851 3.76738,0.879879 6.59136,3.950489 3.94486,4.289368 8.57236,13.399009 10.80048,21.261667 2.1855,7.71224 2.35441,24.544717 0.32335,32.223021 -1.86007,7.031885 -6.10284,15.8413 -10.92504,22.68402 -5.70824,8.10001 -7.53117,13.35108 -7.97422,22.97024 -0.54516,11.83594 1.39326,19.18945 7.33072,27.80956 2.4236,3.51861 2.63839,4.21454 2.35682,7.63629 -0.61074,7.42226 -7.97283,11.6156 -14.62929,8.33262 z"
     id="path900" /><path
     style="stroke-width:0"
     d="m 315.27413,179.69471 c -4.60702,-2.50047 -11.41781,-14.61563 -14.26916,-25.38224 -1.27416,-4.81118 -1.61342,-8.03718 -1.61907,-15.39544 -0.0116,-15.11632 2.90469,-24.3301 11.94758,-37.74752 2.5787,-3.826143 5.37577,-8.793423 6.21572,-11.038398 4.77207,-12.754476 3.10378,-27.972907 -4.31466,-39.359167 -3.49874,-5.370059 -4.15682,-8.901244 -2.31988,-12.448079 2.75572,-5.320842 9.43089,-7.323135 14.37142,-4.310875 2.81138,1.714106 8.8004,10.654205 10.93376,16.32133 3.43407,9.122417 4.42868,14.476481 4.48376,24.136662 0.0843,14.778216 -3.09658,24.54288 -12.48892,38.338867 -5.38592,7.91115 -7.68438,14.17357 -8.27531,22.54701 -0.71044,10.067 1.7203,19.58439 6.97827,27.32295 3.63914,5.35599 4.08622,7.75156 2.22986,11.94816 -2.43452,5.50364 -8.79112,7.82515 -13.87337,5.06674 z"
     id="path902" /><path
     style="stroke-width:0"
     d="M 64.804076,478.0044 C 54.186205,475.73346 45.919359,472.09833 36.877458,465.72441 30.290041,461.08074 4.4747591,435.81253 1.9866742,431.57303 c -2.83182653,-4.8252 -1.50238396,-10.48839 3.1829705,-13.55886 1.7971737,-1.17775 6.5199143,-1.28728 69.9002493,-1.62113 l 67.972846,-0.35803 -4.56909,-3.56511 c -7.06637,-5.51365 -23.4253,-22.10495 -30.02165,-30.44808 -18.622766,-23.5543 -31.638303,-50.30095 -38.504254,-79.12542 -4.058811,-17.0396 -5.85201,-34.51636 -5.841017,-56.92734 0.0069,-13.9658 0.901944,-19.82326 3.947738,-25.83384 2.42048,-4.77659 8.936958,-11.32896 13.402417,-13.47624 7.971001,-3.83296 -0.867308,-3.63629 163.824686,-3.64545 135.481,-0.008 153.39533,0.11738 157.17673,1.09593 11.39215,2.94803 20.69432,12.79989 23.16156,24.53022 0.43897,2.08703 0.79812,8.16332 0.79812,13.50287 0,8.62294 0.12866,9.6589 1.15079,9.26667 2.62704,-1.00809 15.33913,-3.94821 20.30029,-4.69517 8.6341,-1.29995 21.33965,-1.00991 28.31333,0.64633 17.29613,4.10782 28.82094,15.63663 33.32638,33.33794 3.20823,12.60469 2.49427,27.12071 -1.86109,37.83931 -5.93079,14.59577 -21.42792,30.53588 -40.82701,41.99405 -23.1961,13.70088 -55.34109,25.70968 -87.25439,32.59668 l -8.54211,1.84341 -7.5694,7.30944 c -4.16317,4.02018 -9.42775,8.75941 -11.69907,10.53161 l -4.12967,3.22219 67.89139,0.35803 c 63.88479,0.33691 68.00775,0.43428 69.86302,1.65006 4.28563,2.80841 6.01888,8.92409 3.75348,13.2439 -1.55757,2.97006 -30.24745,30.9808 -35.50539,34.66491 -8.80441,6.16903 -18.7109,10.31848 -29.53802,12.37236 -4.9998,0.94844 -27.25039,1.07644 -179.45367,1.0323 C 79.507634,479.30869 70.588782,479.24162 64.804076,478.0044 Z M 423.55371,457.53087 c 7.88178,-1.84404 16.76173,-6.69908 24.16727,-13.21325 3.64299,-3.20451 6.62362,-6.12613 6.62362,-6.4925 0,-0.40934 -80.6736,-0.6556 -209.27062,-0.6388 l -209.270623,0.0274 6.149494,5.88022 c 3.382221,3.23412 7.976724,6.96845 10.210007,8.29851 4.371388,2.60343 11.956912,5.58418 16.579588,6.51497 1.575347,0.3172 81.005094,0.60727 176.510554,0.6446 153.04881,0.0598 174.19837,-0.0613 178.30071,-1.02109 z m -106.1192,-45.7401 c 18.72701,-11.11616 37.50883,-27.72736 50.518,-44.6796 15.79616,-20.58397 28.47048,-48.01227 33.6436,-72.80757 3.12478,-14.97743 3.69619,-21.6731 3.69706,-43.32207 7.2e-4,-20.39242 -4.7e-4,-20.40974 -1.71677,-22.81614 -3.36758,-4.72167 8.43558,-4.39441 -158.49059,-4.39441 -146.700841,0 -152.106096,0.0465 -154.496643,1.32855 -1.460956,0.78352 -3.145497,2.59228 -4.106215,4.40903 -1.539867,2.91193 -1.628996,3.87537 -1.628996,17.60823 0,7.99026 0.346913,18.65373 0.770911,23.6966 3.644424,43.34507 21.997253,83.197 52.204583,113.35874 11.5798,11.56231 25.88022,22.51294 38.6811,29.62027 l 4.65444,2.58425 64.25811,0.008 64.25811,0.008 7.7533,-4.60228 z m 96.19607,-49.54338 c 42.86358,-14.7105 69.75156,-33.90123 75.91101,-54.17988 1.29417,-4.26077 1.45725,-6.1459 1.12076,-12.95545 -0.21658,-4.38303 -0.89298,-9.58029 -1.50312,-11.54947 -2.50612,-8.08845 -7.83124,-13.40165 -15.83885,-15.80338 -5.29511,-1.58817 -19.089,-1.40003 -27.56619,0.37599 -11.36794,2.38163 -19.412,5.10704 -20.0474,6.79225 -0.30577,0.81095 -1.11297,5.66227 -1.79377,10.7807 -3.59215,27.00671 -14.81661,56.64487 -30.96923,81.77418 l -1.01047,1.57203 5.24821,-1.48146 c 2.88651,-0.8148 10.28859,-3.21128 16.44905,-5.32551 z"
     id="path904" /></g>



<g
   id="g38">
</g>
<g
   id="g40">
</g>
<g
   id="g42">
</g>
<g
   id="g44">
</g>
<g
   id="g46">
</g>
<g
   id="g48">
</g>
<g
   id="g50">
</g>
<g
   id="g52">
</g>
<g
   id="g54">
</g>
<g
   id="g56">
</g>
<g
   id="g58">
</g>
<g
   id="g60">
</g>
<g
   id="g62">
</g>
<g
   id="g64">
</g>
<g
   id="g66">
</g>
</svg>
