<?xml version="1.0" encoding="UTF-8" standalone="no"?>
<svg
   xmlns:dc="http://purl.org/dc/elements/1.1/"
   xmlns:cc="http://creativecommons.org/ns#"
   xmlns:rdf="http://www.w3.org/1999/02/22-rdf-syntax-ns#"
   xmlns:svg="http://www.w3.org/2000/svg"
   xmlns="http://www.w3.org/2000/svg"
   viewBox="0 0 64 64"
   width="512"
   height="512"
   version="1.1"
    style="fill:#bbb"
   id="svg23">
  <metadata
     id="metadata29">
    <rdf:RDF>
      <cc:Work
         rdf:about="">
        <dc:format>image/svg+xml</dc:format>
        <dc:type
           rdf:resource="http://purl.org/dc/dcmitype/StillImage" />
        <dc:title></dc:title>
      </cc:Work>
    </rdf:RDF>
  </metadata>
  <defs
     id="defs27" />
  <g
     id="g881"
     transform="translate(0.08282889,0.00233487)">
    <path
       style="stroke-width:0"
       d="m 74.040118,495.12351 c -15.34,-2.25517 -28.881209,-14.83626 -32.503263,-30.19867 -1.515536,-6.42793 -1.486282,-25.60525 0.04357,-28.56367 1.503647,-2.90773 4.92917,-4.20453 11.106369,-4.20453 5.096901,0 5.111782,-0.006 4.663779,-1.7907 -1.33029,-5.3003 -1.272596,-8.25056 0.260018,-13.29636 1.352443,-4.45263 2.176636,-5.78816 5.821071,-9.4326 l 4.245554,-4.24556 -2.55305,-2.98242 c -6.238213,-7.28737 -9.703313,-19.03568 -8.369099,-28.37519 0.744834,-5.21384 0.718976,-5.3948 -1.074385,-7.51888 -1.898109,-2.24815 -5.91129,-10.12728 -5.912288,-11.60768 -3.11e-4,-0.46102 -1.043111,-1.06719 -2.317335,-1.34706 -3.284763,-0.72146 -5.276511,-2.20398 -6.308625,-4.69572 -1.258109,-3.03735 -0.402719,-14.27017 1.766285,-23.19454 3.126207,-12.86278 10.540647,-27.906 14.853414,-30.13623 3.030094,-1.56692 6.486478,-0.80797 8.790502,1.93021 2.728011,3.24205 2.419906,6.09937 -1.363798,12.64764 -3.477958,6.01915 -7.846682,18.34583 -8.622982,24.33041 l -0.487662,3.75944 H 167.95307 279.82795 l -0.45968,-3.91113 c -0.59354,-5.05015 -3.61746,-14.61127 -6.35001,-20.07768 -10.81408,-21.63334 -31.00967,-36.31873 -54.62961,-39.72436 -4.01194,-0.57846 -20.09626,-0.74482 -54.04739,-0.55901 -42.49145,0.23254 -48.87727,0.4102 -52.81511,1.46935 -7.03313,1.89167 -15.237591,5.26054 -20.412513,8.38169 -6.176789,3.7254 -9.020895,3.82353 -12.416015,0.42841 -2.919046,-2.91904 -3.16242,-5.58994 -0.823496,-9.03746 2.939555,-4.33284 19.400231,-11.97465 32.255484,-14.97449 7.53797,-1.75904 23.4882,-2.28154 62.98397,-2.06326 22.35093,0.12352 40.63561,0.0634 40.63264,-0.13346 -0.003,-0.19692 -1.16174,-3.4193 -2.57504,-7.16084 -2.83682,-7.51014 -3.15227,-10.40955 -1.42016,-13.05309 2.07906,-3.17306 3.69131,-3.41684 22.59696,-3.41684 h 17.81347 l 2.12829,1.79084 c 1.40864,1.1853 3.02044,4.03037 4.76673,8.41399 1.45113,3.64273 2.86032,6.85468 3.13153,7.13767 0.2712,0.283 1.58525,-2.71185 2.92011,-6.65522 2.65388,-7.83992 4.95245,-10.68728 8.62746,-10.68728 3.03863,0 27.34973,8.50067 29.19138,10.20711 1.35019,1.25107 2.53109,3.78657 4.88235,10.4828 0.91912,2.61758 0.90388,-0.61807 -0.0538,-11.41935 -1.53005,-17.25744 -1.44147,-19.93511 0.75798,-22.91605 l 1.81982,-2.4664 -67.16247,-0.35804 c -52.09958,-0.27774 -67.51557,-0.56003 -68.73693,-1.25869 -3.6708,-2.09982 -5.00113,-7.44357 -2.67857,-10.7595 2.71806,-3.88056 -0.005,-3.73566 70.19137,-3.73566 h 64.93532 l -0.34769,-5.41792 c -0.37259,-5.80577 -1.66379,-8.46833 -4.92226,-10.15017 -1.35185,-0.69775 -24.66683,-0.85141 -108.6555,-0.71608 l -106.934325,0.17229 -2.089454,2.33857 c -1.938819,2.16997 -2.089454,2.75075 -2.089454,8.05594 v 5.71737 h 32.246773 c 34.61154,0 35.70065,0.10449 38.19391,3.66411 1.49792,2.13858 1.49792,6.28705 0,8.42563 -2.49122,3.5567 -3.60296,3.66411 -37.92538,3.66411 H 80.38042 l 0.373311,1.96923 c 0.20532,1.08308 1.115903,8.75494 2.023517,17.04859 1.83748,16.79065 1.623242,18.73856 -2.28311,20.75861 -3.415566,1.76626 -6.23577,1.32725 -8.957355,-1.39433 -1.339077,-1.33908 -2.434685,-2.96565 -2.434685,-3.61461 0,-0.64896 -1.158429,-11.23447 -2.574287,-23.52335 -2.064287,-17.91692 -2.513343,-24.14413 -2.266665,-31.43266 0.286468,-8.46421 0.465294,-9.40949 2.6006,-13.74692 2.762047,-5.61051 7.294201,-9.83845 12.72412,-11.87005 3.247909,-1.2152 5.588869,-1.45605 14.152251,-1.45605 h 10.260613 l 0.33843,-6.98182 c 0.53839,-11.10716 4.39765,-17.83601 12.86155,-22.42487 l 4.53556,-2.45904 23.45174,-0.2153 23.45175,-0.2153 v -27.80097 c 0,-30.432857 0.0359,-30.739461 4.32687,-36.976202 1.88395,-2.738226 8.30088,-7.294674 40.6982,-28.898442 21.1539,-14.106215 39.14884,-25.86578 39.98879,-26.132367 0.8486,-0.269336 2.65362,-0.01405 4.06232,0.574548 2.12292,0.887014 4.16914,3.517865 12.58403,16.179495 10.6101,15.964685 11.38747,17.831 8.90394,21.37673 -0.62972,0.89905 -15.13042,10.961964 -32.22378,22.36203 L 215.8993,97.753647 v 19.293423 19.29343 l 23.09371,0.21576 23.0937,0.21577 4.09202,2.00944 c 4.6178,2.26763 8.95305,6.77656 11.34475,11.79927 1.22748,2.57777 1.68887,5.10069 1.94894,10.6571 l 0.34074,7.27979 11.54517,0.24732 c 13.01172,0.27872 14.82696,0.83825 20.90974,6.44516 4.79642,4.42119 6.85943,9.48356 7.38507,18.12204 l 0.43637,7.17135 5.60525,-7.37873 c 8.37958,-11.03084 10.19173,-11.30819 18.82521,-2.88126 3.29744,3.21855 6.17946,5.66778 6.40449,5.44275 0.22504,-0.22504 0.70171,-3.50133 1.05927,-7.28066 0.78345,-8.28096 1.72492,-9.94512 6.65974,-11.77187 7.39895,-2.73893 17.07215,-5.25436 18.66676,-4.85414 0.89866,0.22555 7.5365,3.55596 14.75077,7.4009 14.38362,7.66596 16.12199,9.21915 15.44985,13.80413 -0.49788,3.39629 -3.91123,6.44475 -7.21617,6.44475 -1.74184,0 -5.84113,-1.79976 -13.77331,-6.04707 l -11.2934,-6.04707 -4.11613,1.2135 c -3.5845,1.05677 -4.11727,1.44473 -4.12488,3.00372 -0.005,0.98461 -0.34454,5.61827 -0.75497,10.297 -0.62582,7.13404 -0.57555,8.86739 0.31155,10.74126 0.72262,1.52647 1.65297,10.06233 2.93618,26.93936 1.0331,13.58769 2.02106,25.3935 2.19545,26.23514 0.22703,1.09565 1.05155,1.66803 2.90321,2.0154 1.42238,0.26684 2.72272,0.3486 2.88964,0.18167 0.16692,-0.16692 1.85438,-12.59167 3.74992,-27.61055 3.74975,-29.71051 3.63837,-29.30194 8.55572,-31.38247 2.30188,-0.97392 2.86131,-0.80912 18.85552,5.55437 9.06578,3.60694 16.7393,6.27818 17.05225,5.9361 0.31295,-0.34208 1.75898,-6.26113 3.21339,-13.15344 3.90802,-18.51974 4.34728,-19.85991 7.04928,-21.5074 1.26459,-0.77106 3.0403,-1.40314 3.94601,-1.4046 4.09009,-0.006 5.36293,1.61732 18.63795,23.77963 7.15726,11.94887 13.0132,22.44464 13.0132,23.32394 0,1.23183 -8.3014,41.24839 -10.41268,50.19389 -0.22106,0.93663 -1.32735,2.62837 -2.45842,3.75944 -3.71726,3.71727 -9.78912,2.406 -11.86502,-2.56234 -0.8703,-2.08292 -0.51468,-4.36108 4.05013,-25.94543 l 5.00421,-23.66202 -5.50909,-9.22811 c -3.03,-5.07547 -5.88792,-9.64152 -6.35094,-10.14681 -0.65576,-0.71564 -1.26686,1.1045 -2.76482,8.23497 -1.05764,5.03451 -1.92167,9.80671 -1.92007,10.60488 0.001,0.79817 -2.89722,16.65138 -6.44183,35.22934 -3.54462,18.57797 -6.44476,34.25575 -6.44476,34.83951 0,0.90679 2.89453,1.09483 19.87133,1.29094 17.7154,0.20464 20.07712,0.36929 21.76814,1.5176 4.18309,2.84058 4.23969,1.58898 -2.25176,49.7907 -3.31204,24.59323 -6.41819,45.20558 -7.01017,46.51922 -1.11305,2.46996 -4.04412,4.44398 -6.59852,4.44398 -2.61809,0 -5.80625,-2.15903 -6.83937,-4.63164 -0.9088,-2.17505 -0.52021,-5.88711 4.35291,-41.58183 2.94294,-21.55647 5.3508,-39.47238 5.3508,-39.81313 0,-0.34075 -5.43686,-0.61955 -12.08191,-0.61955 h -12.0819 l -0.47955,2.99897 c -0.26376,1.64942 -1.43255,5.37895 -2.59732,8.28781 -8.14573,20.34298 -28.62429,36.17157 -54.66159,42.24981 -6.94863,1.62211 -9.61281,1.86608 -20.85577,1.90979 -13.97542,0.0543 -18.77802,-0.59608 -29.11199,-3.94269 -10.7176,-3.47085 -22.23665,-9.96122 -29.88757,-16.84005 -3.9247,-3.52864 -6.50709,-3.8369 -6.53785,-0.78042 -0.0235,2.33486 -2.57846,7.53051 -5.39099,10.96283 -2.451,2.99112 -2.48193,3.11292 -2.02891,7.98731 0.87135,9.37543 -2.53165,20.58408 -8.50717,28.02052 l -2.53822,3.15878 3.7755,3.45059 c 4.97484,4.54673 7.08784,9.28199 7.14446,16.01087 0.0232,2.75693 -0.20564,5.89875 -0.50853,6.98182 l -0.5507,1.96923 h 5.41983 c 5.84097,0 8.77952,1.02825 10.67587,3.73566 1.57287,2.24559 1.59483,23.44903 0.0306,29.59082 -3.43656,13.49371 -13.60622,24.08849 -27.5564,28.70835 -3.66608,1.21409 -8.29657,1.32091 -66.95385,1.54448 -43.88576,0.16727 -63.8189,0.004 -65.66228,-0.53715 -4.97092,-1.45983 -7.25569,-7.35243 -4.42036,-11.40043 2.62046,-3.74123 1.17653,-3.6641 68.6006,-3.6641 62.3914,0 62.67072,-0.006 66.77564,-1.5423 4.99458,-1.86871 10.60792,-7.20154 13.0747,-12.42134 1.32082,-2.79489 1.76739,-5.19075 2.03546,-10.92028 l 0.3434,-7.33986 h -21.24134 c -22.78559,0 -24.81344,-0.27329 -27.18847,-3.66411 -1.47871,-2.11116 -1.50371,-6.27877 -0.0501,-8.35408 2.23639,-3.19289 4.53742,-3.73548 15.85384,-3.73833 9.23322,-0.002 10.8918,-0.18195 12.88112,-1.39492 3.50539,-2.13738 4.63531,-8.23135 2.13687,-11.52478 -2.55296,-3.36531 -3.57534,-3.54756 -19.90146,-3.54756 h -15.52066 l -15.3777,19.2093 c -15.98849,19.97227 -17.7013,21.58799 -21.79589,20.56031 -1.08107,-0.27133 -3.4244,-2.08013 -5.20742,-4.01958 l -3.24186,-3.52625 h -63.2882 -63.288233 l 0.343663,7.13684 c 0.297689,6.18211 0.649801,7.75869 2.632106,11.78533 2.491901,5.06176 6.210967,8.73086 11.483272,11.32896 3.032183,1.49422 4.504557,1.6413 19.746422,1.97265 17.19669,0.37383 18.53799,0.61617 20.72971,3.74529 1.44764,2.06679 1.41922,6.23704 -0.0569,8.34444 -2.21473,3.16199 -4.9238,3.67094 -19.038653,3.57679 -7.200343,-0.048 -14.897394,-0.3528 -17.10456,-0.67728 z M 200.45177,425.35385 c 3.76764,-4.72616 6.85122,-8.83469 6.85239,-9.13007 0.001,-0.29539 -6.92598,-0.53707 -15.39367,-0.53707 -8.46769,0 -15.3958,0.19475 -15.3958,0.43277 0,0.23802 3.44547,4.75642 7.6566,10.04089 6.14166,7.70707 7.83207,9.42792 8.54341,8.69731 0.48774,-0.50095 3.96943,-4.77768 7.73707,-9.50383 z m -31.60521,5.90769 c -0.37545,-0.49231 -3.33722,-4.20586 -6.5817,-8.25235 l -5.89905,-7.35723 -40.11052,0.19639 -40.110516,0.19641 -2.089171,2.33857 c -3.386484,3.79075 -2.708059,10.01943 1.366646,12.54729 1.730911,1.07383 6.341976,1.18975 48.010881,1.20697 36.76593,0.0152 45.9579,-0.16212 45.41343,-0.87605 z m 74.95842,-31.37508 c 10.59463,-1.7189 18.19217,-9.14944 20.1425,-19.69971 1.062,-5.74492 0.64804,-6.42128 -4.55687,-7.44528 -2.44554,-0.48114 -5.32071,-1.32689 -6.38926,-1.87945 -3.9709,-2.05344 -7.00971,-1.32288 -18.90503,4.54497 l -11.25026,5.54965 h -6.87478 -6.87478 l -11.35181,-5.54965 c -7.16388,-3.50226 -12.22221,-5.54965 -13.71112,-5.54965 -1.48892,0 -6.54724,2.04739 -13.71113,5.54965 l -11.35181,5.54965 -7.16084,-0.0117 -7.16084,-0.0117 -10.91133,-5.53796 c -13.75351,-6.9805 -13.798,-6.98263 -25.29985,-1.21693 -4.74096,2.37657 -10.616846,4.83321 -13.057521,5.45921 -5.527285,1.41766 -12.91496,0.96807 -18.401228,-1.11983 -2.166154,-0.82437 -4.22394,-1.49902 -4.572857,-1.49922 -1.118524,-6.3e-4 0.187616,6.31689 2.076787,10.04499 3.404186,6.71784 10.008992,11.60914 17.341566,12.84258 5.304851,0.89235 146.471763,0.87411 151.980463,-0.0196 z m -78.61254,-38.98899 c 17.41796,-8.5459 20.17995,-8.54496 37.71182,0.013 6.518,3.18168 11.91132,5.36975 13.24755,5.37453 1.37632,0.005 6.93175,-2.27045 14.26923,-5.84434 11.65957,-5.67906 12.16858,-5.8523 17.18601,-5.84923 3.38061,0.002 6.28611,0.46098 8.39295,1.32563 1.79245,0.73563 5.07582,1.34164 7.39915,1.36565 3.89331,0.0402 4.32873,-0.12692 6.41568,-2.46312 l 2.2389,-2.50629 -51.70798,-0.18373 c -28.43939,-0.10105 -74.9217,-0.10105 -103.29401,0 l -51.586024,0.18376 2.237705,3.0427 c 1.718542,2.33678 3.785829,3.81124 8.910477,6.35525 5.927931,2.94278 7.206717,3.31254 11.456161,3.31254 4.44378,0 5.463749,-0.33427 14.366401,-4.70823 10.76374,-5.28832 15.91462,-6.61289 21.55562,-5.5431 1.98096,0.37569 8.52224,3.11788 14.53619,6.09376 6.99654,3.46211 11.79258,5.41071 13.31722,5.41071 1.51516,0 6.37494,-1.95872 13.34695,-5.37945 z m 182.4652,-2.67649 c -0.002,-2.97863 4.29039,-80.33111 4.70611,-84.80725 0.3105,-3.34319 0.84262,-4.89242 2.17381,-6.32879 l 1.76267,-1.90195 -1.85233,-23.03066 -1.85234,-23.03065 -7.81119,-7.8451 c -4.29616,-4.3148 -7.93704,-7.6983 -8.09084,-7.51888 -0.1538,0.17942 -4.00777,5.3209 -8.56438,11.42552 l -8.28474,11.0993 5.48647,65.63941 5.48646,65.63942 3.94518,0.76353 c 2.16984,0.41994 4.58965,0.89349 5.37734,1.05234 0.78769,0.15885 2.80168,0.3262 4.47552,0.37188 2.7036,0.0738 3.04324,-0.0968 3.04226,-1.52812 z m 25.42208,-0.70217 c 3.15077,-0.80139 5.97662,-1.67838 6.27968,-1.94887 0.69501,-0.62035 4.82551,-68.98045 4.20385,-69.57401 -0.53915,-0.51478 -15.94018,-4.37049 -16.24168,-4.06617 -0.11296,0.11402 -1.03339,15.35248 -2.04539,33.86325 -1.01199,18.51077 -2.03367,35.98956 -2.27039,38.84176 l -0.43039,5.18581 2.38782,-0.42235 c 1.31331,-0.2323 4.96573,-1.07804 8.1165,-1.87942 z m -59.71142,-25.55324 -1.38519,-16.05122 -10.95614,-31.01783 -10.95614,-31.01783 -6.42155,-2.15368 c -3.53185,-1.18452 -6.53022,-2.045 -6.66304,-1.91218 -0.13282,0.13282 -1.30636,3.43213 -2.60787,7.33181 l -2.36639,7.09033 5.43738,17.18601 c 3.17444,10.03347 6.70738,19.65874 8.4889,23.12743 3.77339,7.34697 6.91781,16.59532 8.24745,24.25736 0.85868,4.94812 1.42502,6.31923 3.76781,9.12196 3.09353,3.70086 6.56561,6.67019 12.42741,10.62795 3.87065,2.61337 3.9853,2.64286 4.17624,1.07413 0.10798,-0.88717 -0.427,-8.83607 -1.18887,-17.66424 z m 86.7867,11.93373 3.4053,-3.04336 9.63481,-50.84195 c 5.29914,-27.96308 9.76415,-51.38457 9.92224,-52.04777 0.23004,-0.96501 -2.19947,-2.20413 -12.16618,-6.20509 -12.00388,-4.81875 -12.46569,-4.9433 -12.78775,-3.44874 -0.34504,1.60124 -5.39139,42.07132 -5.39139,43.23722 0,0.36029 1.14565,1.20138 2.54588,1.86911 4.6397,2.21252 4.65928,2.44593 2.80324,33.42324 -0.9085,15.16307 -1.85082,30.38881 -2.09403,33.83496 -0.24322,3.44616 -0.18013,6.26574 0.14018,6.26574 0.32032,0 2.11479,-1.36951 3.9877,-3.04336 z M 248.93591,263.33986 c -0.72298,-1.87077 -2.41003,-6.21981 -3.74898,-9.66455 l -2.43448,-6.26314 -7.6979,-0.003 c -4.23385,-10e-4 -7.70167,0.23909 -7.70627,0.53447 -0.004,0.29539 0.85366,3.02549 1.90725,6.06689 l 1.91561,5.52982 5.43261,1.84387 c 2.98794,1.01413 6.88268,2.61968 8.65499,3.56789 4.77516,2.55478 5.21346,2.36257 3.67717,-1.61266 z M 264.5919,163.8042 c -0.001,-5.96307 -1.53625,-9.36212 -5.01148,-11.09819 -2.3308,-1.16436 -7.05825,-1.25211 -67.51391,-1.25315 -69.96835,-10e-4 -68.32896,-0.0858 -70.95474,3.663 -0.85124,1.21532 -1.16771,3.27356 -1.16771,7.59452 v 5.92738 h 72.32447 72.32448 l -10e-4,-4.83356 z m -64.44645,-48.76588 c 0,-13.99641 0.27832,-22.174023 0.8062,-23.688304 0.69124,-1.982886 5.12927,-5.195183 31.12418,-22.528036 L 262.39381,48.606596 257.73719,41.6431 c -3.06094,-4.577309 -4.95391,-6.786022 -5.52418,-6.445579 -0.47715,0.284855 -15.69788,10.399627 -33.82384,22.477273 -23.42361,15.607571 -33.21044,22.51718 -33.83496,23.887863 -0.64355,1.412435 -0.87869,9.009627 -0.87869,28.389913 v 26.46142 h 8.23497 8.23496 z"
       id="path854"
       transform="scale(0.125)" />
    <path
       style=" stroke-width:0"
       d="m 344.15325,462.53112 c -14.57813,-3.92028 -24.55347,-17.67905 -23.51317,-32.43121 0.67659,-9.59442 4.89337,-17.50281 12.35605,-23.17321 6.12009,-4.65027 10.26253,-5.91971 19.31716,-5.91971 7.35242,0 8.18685,0.14904 12.53147,2.23829 12.47426,5.99866 19.35285,17.59808 18.42898,31.07696 -1.32867,19.38487 -20.50742,33.21422 -39.12049,28.20888 z m 15.67892,-16.31115 c 6.25671,-3.09082 9.81781,-11.3106 7.94071,-18.32886 -3.82872,-14.31516 -23.40039,-16.48634 -30.31598,-3.3631 -2.34614,4.45212 -2.17261,11.30851 0.39719,15.69355 4.50904,7.69409 13.55037,10.16171 21.97808,5.99841 z"
       id="path856"
       transform="scale(0.125)" />
    <path
       style=" stroke-width:0"
       d="m 309.26111,494.85916 c -1.22947,-0.5351 -2.7601,-1.72202 -3.4014,-2.6376 -1.47721,-2.10901 -1.50137,-6.27724 -0.0484,-8.35163 2.71073,-3.87011 0.31674,-3.73566 66.51678,-3.73566 47.15315,0 61.26073,-0.19779 61.26073,-0.85888 0,-2.51008 6.62562,-49.27123 7.26754,-51.29165 0.81829,-2.57548 4.22145,-5.12907 6.84143,-5.13351 4.54067,-0.008 7.67069,3.56776 7.4998,8.56712 -0.20159,5.89714 -7.76942,58.39947 -8.65689,60.05772 -0.47842,0.89394 -1.89656,2.25137 -3.15143,3.01651 -2.21562,1.35097 -4.15469,1.39045 -67.08716,1.36583 -52.9914,-0.0208 -65.21311,-0.20272 -67.04099,-0.99825 z"
       id="path858"
       transform="scale(0.125)" />
    <path
       style=" stroke-width:0"
       d="m 244.37264,318.64591 c -4.60726,-2.58305 -5.20746,-8.73235 -1.18286,-12.11883 4.91822,-4.1384 12.09414,-1.0168 12.09414,5.26108 0,5.66668 -6.14596,9.52942 -10.91128,6.85775 z"
       id="path860"
       transform="scale(0.125)" />
    <path
       style=" stroke-width:0"
       d="m 210.83163,301.16837 c -5.68043,-5.68043 0.67205,-15.09962 8.09247,-11.99917 3.02174,1.26256 5.17251,5.27481 4.49096,8.37787 -1.19991,5.46316 -8.60928,7.59545 -12.58343,3.6213 z"
       id="path862"
       transform="scale(0.125)" />
    <path
       style=" stroke-width:0"
       d="m 181.08209,310.82559 c -6.48223,-2.82122 -6.001,-11.76321 0.75301,-13.99224 4.52752,-1.49421 9.71735,2.32139 9.71735,7.14427 0,2.64007 -2.16019,5.80674 -4.67911,6.85921 -2.91921,1.21973 -2.9631,1.21964 -5.79125,-0.0112 z"
       id="path864"
       transform="scale(0.125)" />
    <path
       style=" stroke-width:0"
       d="m 146.9439,301.2664 c -3.92021,-4.09181 -2.88527,-9.9728 2.12329,-12.06551 5.11596,-2.13758 10.26148,1.37744 10.26148,7.00983 0,6.36221 -8.00306,9.6292 -12.38477,5.05568 z"
       id="path866"
       transform="scale(0.125)" />
    <path
       style=" stroke-width:0"
       d="m 125.23457,319.02966 c -2.5697,-1.03828 -4.57443,-4.24921 -4.57443,-7.32677 0,-6.19327 7.21526,-9.28111 12.09413,-5.17581 6.3915,5.37809 0.22451,15.63159 -7.5197,12.50258 z"
       id="path868"
       transform="scale(0.125)" />
    <path
       style=" stroke-width:0"
       d="m 92.958229,310.80644 c -2.385656,-1.03759 -4.521865,-4.26364 -4.521865,-6.82882 0,-2.68049 2.159892,-5.80661 4.763513,-6.89447 4.885803,-2.04142 10.274253,1.54155 10.274253,6.83171 0,3.25573 -1.62789,5.64709 -4.725137,6.9412 -2.874022,1.20085 -2.91651,1.20048 -5.790764,-0.0496 z"
       id="path870"
       transform="scale(0.125)" />
  </g>
</svg>
