<?xml version="1.0" encoding="UTF-8" standalone="no"?>
<svg
   xmlns:dc="http://purl.org/dc/elements/1.1/"
   xmlns:cc="http://creativecommons.org/ns#"
   xmlns:rdf="http://www.w3.org/1999/02/22-rdf-syntax-ns#"
   xmlns:svg="http://www.w3.org/2000/svg"
   xmlns="http://www.w3.org/2000/svg"
   version="1.1"
   id="Capa_1"
   x="0px"
   y="0px"
   viewBox="0 0 512.001 512.001"
   style="enable-background:new 0 0 512.001 512.001;"
   xml:space="preserve"><metadata
   id="metadata1215"><rdf:RDF><cc:Work
       rdf:about=""><dc:format>image/svg+xml</dc:format><dc:type
         rdf:resource="http://purl.org/dc/dcmitype/StillImage" /><dc:title></dc:title></cc:Work></rdf:RDF></metadata><defs
   id="defs1213" />


<g
   id="g1180">
</g>
<g
   id="g1182">
</g>
<g
   id="g1184">
</g>
<g
   id="g1186">
</g>
<g
   id="g1188">
</g>
<g
   id="g1190">
</g>
<g
   id="g1192">
</g>
<g
   id="g1194">
</g>
<g
   id="g1196">
</g>
<g
   id="g1198">
</g>
<g
   id="g1200">
</g>
<g
   id="g1202">
</g>
<g
   id="g1204">
</g>
<g
   id="g1206">
</g>
<g
   id="g1208">
</g>
<g
   id="g855"
   transform="translate(-0.0059414,-0.37365496)"><path
     style="fill:#1043b2;stroke-width:0.716085"
     d="m 156.82268,510.77894 c -3.74973,-1.31073 -6.9035,-4.22429 -8.66309,-8.00327 -2.79623,-6.00532 -1.95213,-11.61238 2.45603,-16.31441 2.34766,-2.50418 6.50541,-4.42545 39.14698,-18.08961 l 36.52035,-15.28786 0.18341,-55.574 0.18341,-55.574 -96.79698,-136.5958 C 73.568739,125.91433 32.760015,67.677105 32.349093,66.194623 c -0.388686,-1.40226 -0.495411,-3.391414 -0.237166,-4.420342 0.734225,-2.925388 3.886586,-6.164711 6.781727,-6.968814 1.763924,-0.489915 59.402357,-0.750245 173.783676,-0.784912 l 171.14438,-0.05187 19.66662,-25.476901 c 10.81664,-14.012295 20.64492,-26.073485 21.8406,-26.802644 7.59658,-4.632569 17.15205,4.4069971 13.02278,12.319664 -0.52679,1.009446 -20.46622,26.974726 -44.30984,57.700624 -23.84362,30.725902 -43.73691,56.484652 -44.20733,57.241682 -0.74186,1.19386 -0.43352,1.83499 2.32484,4.83403 7.75369,8.43027 10.91614,16.49845 10.85435,27.69209 -0.0354,6.40857 -0.32651,8.24615 -1.97149,12.44372 -6.11531,15.60473 -21.60127,27.32885 -40.42826,30.60742 -4.18603,0.72897 -4.54723,0.93146 -4.14802,2.32547 3.8957,13.60313 3.45327,21.67336 -1.75214,31.9606 -5.94693,11.75264 -18.52819,21.04763 -34.00839,25.12526 -7.81205,2.05777 -22.03337,2.11746 -29.57141,0.12413 l -5.22452,-1.38156 -7.1581,9.1878 c -3.93695,5.05329 -8.09525,9.67242 -9.24065,10.26473 -6.33888,3.27796 -13.60184,-1.39155 -13.60836,-8.74909 -0.002,-2.62376 0.62754,-3.85373 4.7672,-9.3091 2.62343,-3.45725 5.56374,-7.24452 6.53403,-8.41616 l 1.76415,-2.13026 -2.83047,-2.5243 c -17.18495,-15.32604 -18.44066,-39.28327 -2.94592,-56.2038 7.78489,-8.50123 17.72199,-13.9923 29.95156,-16.55071 3.34396,-0.69955 6.18306,-1.34528 6.3091,-1.43494 0.12604,-0.0897 -0.43788,-2.32265 -1.25315,-4.9622 -2.69043,-8.7106 -1.77189,-19.38496 2.39457,-27.82732 10.56381,-21.40508 41.38775,-32.83023 67.03622,-24.84752 l 4.35126,1.35426 17.86269,-23.030389 c 9.82447,-12.666718 17.86347,-23.272077 17.86442,-23.567463 7.2e-4,-0.295385 -69.14524,-0.537064 -153.65822,-0.537064 -103.71558,0 -153.581161,0.23643 -153.417504,0.7274 0.133358,0.400077 6.3633,9.411502 13.844316,20.025396 l 13.601848,19.29799 60.50921,0.0261 c 67.47581,0.0291 63.63257,-0.25509 67.11872,4.96335 2.9325,4.3897 1.40972,9.93669 -3.55961,12.96653 -2.2738,1.38636 -3.71247,1.42302 -55.93781,1.42563 -46.81176,0.002 -53.55292,0.13575 -53.20096,1.05294 0.22166,0.57765 28.53255,40.7692 62.91309,89.31457 42.71612,60.3152 63.98395,89.7497 67.16463,92.95522 5.43751,5.47997 10.57152,8.19786 17.83992,9.44425 9.81902,1.68378 20.74864,-1.70939 27.4246,-8.51415 3.06945,-3.12866 173.07252,-241.898033 173.12077,-243.148167 0.0114,-0.295386 -6.44005,-0.537064 -14.33655,-0.537064 -15.55302,0 -17.0217,-0.295973 -19.95159,-4.020733 -1.04771,-1.331902 -1.4954,-2.936598 -1.4954,-5.359993 0,-2.842674 0.39324,-3.906818 2.20716,-5.972762 1.23815,-1.410176 3.36024,-2.834089 4.83358,-3.243307 3.48835,-0.96889 46.88884,-0.965825 50.37907,0.0036 2.89515,0.804102 6.0475,4.043426 6.78173,6.968813 0.25825,1.028929 0.15225,3.018083 -0.23555,4.420343 -0.41166,1.488551 -40.98826,59.3161 -97.50363,138.95687 l -96.79854,136.4073 0.18335,55.80429 0.18335,55.80429 36.52035,15.23712 c 33.54402,13.99532 36.73118,15.47205 39.10738,18.11979 7.34915,8.18901 3.99952,20.80392 -6.45334,24.30367 -3.29866,1.10443 -194.9056,1.05701 -198.06974,-0.049 z m 170.07025,-19.48176 c -0.98462,-0.52477 -13.9542,-6.03335 -28.82128,-12.24128 -16.77855,-7.00609 -27.707,-11.96309 -28.81318,-13.06927 -0.98016,-0.98017 -2.10672,-2.95073 -2.50345,-4.37904 -0.45652,-1.64353 -0.72281,-23.57639 -0.72534,-59.74208 l -0.004,-57.14516 -5.9077,0.45658 c -3.24924,0.25112 -7.76058,0.1556 -10.0252,-0.21228 l -4.11749,-0.66886 -0.0171,56.9994 c -0.009,31.51464 -0.30759,58.25187 -0.66683,59.80071 -1.17486,5.06524 -2.91049,6.05287 -32.00627,18.21273 -15.02574,6.27963 -27.91528,11.76377 -28.64341,12.18698 -0.95002,0.55218 19.201,0.76752 71.35879,0.76257 60.96484,-0.006 72.39404,-0.16071 70.89244,-0.961 z M 277.38894,244.93999 c 8.85474,-2.36808 17.44909,-8.69406 20.48277,-15.07661 1.72321,-3.62545 2.24168,-10.22223 1.11865,-14.2333 -2.73889,-9.78234 -15.43752,-18.05938 -29.74229,-19.38618 -10.84567,-1.00596 -23.99698,3.30703 -30.7864,10.09646 -4.44771,4.44771 -6.23456,8.198 -6.64764,13.95229 -0.55675,7.75565 3.17947,14.41416 11.00133,19.60602 9.41495,6.24929 22.77339,8.19714 34.57358,5.04132 z m 42.70118,-59.94274 c 10.27733,-2.1865 20.33157,-10.01417 22.93659,-17.85717 6.08102,-18.30821 -16.26774,-34.94927 -40.94683,-30.48933 -10.90727,1.97114 -20.42999,8.14325 -24.18266,15.67386 -1.4413,2.89232 -1.84634,4.77564 -1.84634,8.58494 0,7.70813 3.56738,13.80938 10.90868,18.65698 9.22643,6.09239 20.97127,8.01759 33.13056,5.43072 z"
     id="path1778" /><path
     style="fill:#1043b2;stroke-width:0.716085"
     d="m 237.5754,131.77216 c -6.86354,-2.98377 -6.85746,-13.81818 0.01,-17.07681 3.17532,-1.50678 5.0123,-1.50678 8.18762,0 6.95385,3.29982 6.85972,14.17941 -0.14802,17.10743 -3.05109,1.27483 -5.06387,1.26717 -8.04917,-0.0306 z"
     id="path1780" /></g></svg>
