<?xml version="1.0" encoding="UTF-8" standalone="no"?>
<svg
   xmlns:dc="http://purl.org/dc/elements/1.1/"
   xmlns:cc="http://creativecommons.org/ns#"
   xmlns:rdf="http://www.w3.org/1999/02/22-rdf-syntax-ns#"
   xmlns:svg="http://www.w3.org/2000/svg"
   xmlns="http://www.w3.org/2000/svg"
   version="1.1"
   id="Capa_1"
   x="0px"
   y="0px"
   viewBox="0 0 512.001 512.001"
   style="enable-background:new 0 0 512.001 512.001;"
   xml:space="preserve"><metadata
   id="metadata79"><rdf:RDF><cc:Work
       rdf:about=""><dc:format>image/svg+xml</dc:format><dc:type
         rdf:resource="http://purl.org/dc/dcmitype/StillImage" /><dc:title></dc:title></cc:Work></rdf:RDF></metadata><defs
   id="defs77" />







<g
   id="g44">
</g>
<g
   id="g46">
</g>
<g
   id="g48">
</g>
<g
   id="g50">
</g>
<g
   id="g52">
</g>
<g
   id="g54">
</g>
<g
   id="g56">
</g>
<g
   id="g58">
</g>
<g
   id="g60">
</g>
<g
   id="g62">
</g>
<g
   id="g64">
</g>
<g
   id="g66">
</g>
<g
   id="g68">
</g>
<g
   id="g70">
</g>
<g
   id="g72">
</g>
<g
   id="g962"
   transform="translate(0.08159364,0.17414859)"><path
     style="fill:#1043b2;stroke:none;stroke-width:0;stroke-miterlimit:4;stroke-dasharray:none"
     d="m 77.956547,255.3868 c -4.14093,-3.93554 -26.260927,-47.80816 -29.412393,-58.33631 -1.05228,-3.51536 -0.159138,-7.63052 2.099796,-9.67483 3.640627,-3.29472 9.848723,-3.48816 13.126331,-0.40901 0.89266,0.83861 3.620516,6.0359 6.0619,11.54954 4.451383,10.05302 14.830163,31.04733 20.805508,42.0856 3.472651,6.41504 3.78292,8.20094 2.056748,11.83857 -1.54836,3.26293 -4.961853,5.24454 -9.034178,5.24454 -2.739507,0 -3.687622,-0.38201 -5.703712,-2.2981 z"
     id="path934" /><g
     id="g952"><path
       style="fill:#1043b2;stroke:none;stroke-width:0;stroke-miterlimit:4;stroke-dasharray:none"
       d="M 305.57878,510.50066 C 300.33784,509.2939 293.87383,506.75001 279.31912,500.16627 181.37507,455.86186 96.255223,380.20862 41.248325,288.57253 25.182542,261.80852 5.8591466,222.45109 2.0978606,208.8318 0.14067756,201.74502 0.34500108,187.52158 2.5032707,180.61026 12.446245,148.77034 45.362498,132.84964 75.529422,145.28948 c 2.865918,1.18181 5.515008,2.453 5.886869,2.82486 0.37186,0.37186 1.151353,0.67611 1.732192,0.67611 0.580846,0 94.857947,-33.44714 209.504667,-74.326982 C 522.64155,-7.5440165 503.84882,-1.3610926 508.61921,3.4092987 513.28816,8.0782448 519.11375,-10.3746 439.25342,223.12899 l -72.61609,212.3222 2.01268,6.39949 c 1.76945,5.62617 2.01079,7.4676 1.99711,15.23833 -0.0187,10.61559 -1.0969,15.25117 -5.75645,24.74873 -2.82487,5.75795 -4.26411,7.68144 -10.07552,13.46551 -7.38091,7.34619 -13.54583,11.12284 -23.04334,14.11641 -6.31616,1.99082 -19.82113,2.54818 -26.19303,1.081 z m 22.60041,-20.14527 c 13.04859,-4.52905 22.04811,-16.03548 23.45116,-29.98376 0.97222,-9.66528 -3.06159,-20.66721 -10.19184,-27.79746 -4.44004,-4.44004 -6.5102,-5.60988 -21.68752,-12.25553 -5.44472,-2.38407 -15.97118,-7.45387 -23.39214,-11.26622 C 204.99636,362.11694 132.06171,284.40863 90.577693,189.80265 87.934422,183.77456 84.995128,177.58551 84.045922,176.0492 79.361438,168.46723 69.61145,162.24767 59.993826,160.70626 c -22.731659,-3.6432 -43.22443,16.46274 -39.949464,39.19537 0.954673,6.6267 6.823603,20.57278 18.365511,43.64113 45.063603,90.06684 113.909757,163.52273 201.084497,214.54852 21.09455,12.34722 57.90697,30.10374 68.58936,33.08415 5.74132,1.60184 14.1006,1.26072 20.09546,-0.82004 z m 50.46827,-149.40867 c 14.10795,-41.32155 25.64002,-75.4863 25.62681,-75.92167 -0.0132,-0.43536 -6.56168,-5.79866 -14.55215,-11.91844 -7.99047,-6.11977 -15.00538,-11.85521 -15.58867,-12.74543 -2.74247,-4.18555 -1.76493,-8.99776 2.5685,-12.64409 2.41786,-2.0345 6.61672,-2.49849 9.38679,-1.03727 0.84947,0.4481 6.74328,4.77936 13.09734,9.62502 6.35406,4.84565 11.81657,8.53605 12.13892,8.20087 0.58605,-0.60937 19.79531,-56.42515 19.79531,-57.51865 0,-0.31839 -1.67054,-0.97128 -3.71231,-1.45086 -8.29582,-1.94855 -18.17215,-7.99891 -23.31728,-14.28445 -7.21024,-8.80837 -10.6328,-17.89729 -10.7214,-28.47171 -0.0713,-8.51457 0.92101,-12.93313 4.67587,-20.81992 2.28907,-4.808 3.96177,-7.08195 8.58971,-11.6773 8.15223,-8.0948 16.86349,-12.26093 28.02094,-13.400907 5.79374,-0.591954 15.25826,1.00178 21.16695,3.564307 2.3784,1.03148 4.41978,1.75082 4.53641,1.59853 0.4262,-0.55657 25.93028,-75.804146 25.74897,-75.970115 -0.16725,-0.153092 -132.87747,47.006814 -133.29431,47.367474 -0.0941,0.08144 0.97275,2.984938 2.37086,6.4522 1.99932,4.958212 2.46826,6.958589 2.19651,9.369604 -0.68379,6.066488 -6.82976,9.751653 -12.4878,7.487751 -3.50376,-1.401924 -4.7875,-3.153795 -7.8532,-10.716938 -1.30055,-3.208497 -2.58905,-5.833631 -2.86333,-5.833631 -0.61336,0 -123.91238,43.917245 -124.31854,44.280385 -0.1601,0.14314 0.52704,1.77329 1.52699,3.62256 3.28886,6.08235 5.05907,13.29256 5.07879,20.68641 0.0217,8.13334 -1.01206,12.70629 -4.5572,20.1593 -4.88946,10.2792 -14.50974,18.85765 -25.58219,22.81177 -6.81343,2.43316 -18.43817,3.00433 -25.31923,1.24402 -12.72029,-3.2541 -23.92786,-12.23471 -29.59917,-23.71776 -1.63026,-3.3009 -3.3303,-7.99038 -3.77785,-10.42106 -0.44754,-2.43068 -1.09651,-4.41941 -1.44215,-4.41941 -0.8518,0 -24.75861,8.4301 -25.89032,9.12953 -0.681173,0.42099 -0.29756,1.6552 1.5797,5.08241 1.36364,2.48951 4.1056,8.34476 6.09325,13.01167 4.76424,11.18621 15.38506,32.28497 22.24672,44.19417 32.11752,55.74357 78.30026,105.13561 131.55254,140.69431 22.99704,15.35605 45.01946,27.24115 73.39184,39.60823 6.76026,2.94669 14.69829,7.57544 15.65998,9.13149 0.26435,0.42773 0.86223,0.77769 1.32861,0.77769 0.49295,0 11.58716,-31.45462 26.49879,-75.13009 z M 182.30358,172.69429 c 10.44107,-4.78478 16.037,-15.16297 14.65804,-27.18471 -0.66055,-5.75863 -4.7327,-13.67882 -7.04267,-13.69774 -0.93305,-0.008 -43.04609,14.78002 -43.73818,15.35831 -0.67499,0.564 -0.003,7.04807 1.09135,10.53174 2.23746,7.12202 9.03636,13.80375 16.47002,16.18617 5.04349,1.6164 13.63502,1.06384 18.56144,-1.19377 z m 263.31859,-27.52188 c 4.2746,-12.49046 7.772,-23.07054 7.772,-23.5113 0,-0.44076 -1.75008,-1.75597 -3.88908,-2.9227 -3.58774,-1.95694 -4.43785,-2.12132 -10.97103,-2.12132 -6.57635,0 -7.41926,0.16593 -11.80682,2.32409 -5.26162,2.58809 -9.39466,6.75317 -11.92618,12.01862 -2.4089,5.01041 -2.72931,14.65734 -0.66846,20.12639 3.37596,8.9591 12.93259,16.01293 22.65073,16.71867 0.78501,0.057 3.11993,-5.92172 8.83884,-22.63245 z"
       id="path932" /><path
       style="fill:#1043b2;stroke:none;stroke-width:0;stroke-miterlimit:4;stroke-dasharray:none"
       d="m 94.860777,281.86538 c -8.29907,-5.22295 -4.877698,-17.81652 4.840324,-17.81652 5.246279,0 10.313159,5.97917 9.362259,11.04792 -0.25807,1.37563 -1.50386,3.63014 -2.76843,5.01003 -1.9098,2.08394 -2.89061,2.56001 -5.7909,2.81077 -2.606183,0.22533 -4.037312,-0.0415 -5.643253,-1.0522 z"
       id="path936" /><path
       style="fill:#1043b2;stroke:none;stroke-width:0;stroke-miterlimit:4;stroke-dasharray:none"
       d="m 296.42511,216.992 c -8.02522,-2.02809 -14.32048,-5.74083 -20.88099,-12.31493 -6.81018,-6.8243 -9.731,-11.71333 -12.05193,-20.1732 -2.10518,-7.67344 -1.70775,-18.93935 0.91667,-25.98473 4.98244,-13.37563 14.37802,-22.78996 27.94772,-28.00351 4.31121,-1.65639 5.71353,-1.83151 14.66649,-1.83151 8.95297,0 10.35529,0.17512 14.66649,1.83151 13.74812,5.2821 24.00862,15.78607 28.21199,28.88142 2.06251,6.42563 2.52031,17.22166 1.0045,23.68808 -3.4731,14.81606 -14.56587,27.08211 -29.40215,32.51203 -6.67117,2.44157 -18.36356,3.09189 -25.07879,1.39484 z m 21.14459,-20.35343 c 5.42007,-2.48139 9.89902,-6.88214 12.61117,-12.39098 2.07789,-4.22058 2.29805,-5.27885 2.29805,-11.04683 0,-5.53385 -0.26929,-6.96208 -2.03235,-10.77897 -2.4017,-5.19953 -7.96596,-10.8074 -12.96485,-13.06645 -2.71439,-1.22667 -4.79278,-1.5403 -10.45865,-1.57822 -6.35946,-0.0426 -7.47512,0.15111 -11.086,1.92447 -6.13297,3.01201 -11.48574,9.18929 -13.38714,15.44924 -4.3461,14.3086 3.49661,28.89174 17.70567,32.92279 4.77427,1.35445 12.64618,0.702 17.3141,-1.43505 z"
       id="path938" /><path
       style="fill:#1043b2;stroke:none;stroke-width:0;stroke-miterlimit:4;stroke-dasharray:none"
       d="m 293.38689,341.11031 c -8.02491,-2.10252 -14.5922,-5.91247 -20.67293,-11.9932 -17.46633,-17.46633 -17.87511,-44.2539 -0.949,-62.18938 7.81972,-8.28605 16.96902,-12.96771 27.69699,-14.17244 32.04974,-3.59913 57.96549,28.08072 47.80497,58.43759 -7.53118,22.5011 -31.46445,35.79029 -53.88003,29.91743 z m 21.42037,-20.05116 c 5.12704,-2.34723 10.49782,-7.5032 12.89008,-12.3745 1.73744,-3.53791 1.95315,-4.75809 1.95315,-11.04822 0,-6.18557 -0.23644,-7.5755 -1.88811,-11.0991 -2.40857,-5.13839 -7.33025,-10.06007 -12.46864,-12.46864 -3.5236,-1.65166 -4.91353,-1.8881 -11.0991,-1.8881 -6.41457,0 -7.45036,0.19207 -11.15641,2.06882 -4.5545,2.3064 -9.51691,7.1964 -11.75506,11.58353 -0.81177,1.59119 -1.85284,5.09103 -2.31351,7.77742 -3.3814,19.71883 17.6076,35.79476 35.8376,27.44879 z"
       id="path940" /><path
       style="fill:#1043b2;stroke:none;stroke-width:0;stroke-miterlimit:4;stroke-dasharray:none"
       d="m 225.90164,228.34313 c -11.34465,-1.54898 -17.36404,-2.67654 -18.59531,-3.4833 -8.12611,-5.32443 -4.43776,-17.37446 5.31799,-17.37412 5.9702,2.1e-4 32.84149,3.99795 35.25227,5.24461 2.21948,1.14774 4.999,5.63851 5.03728,8.13855 0.0312,2.03797 -2.83475,6.8247 -4.74242,7.92078 -3.37167,1.93725 -5.05897,1.90342 -22.26981,-0.44652 z"
       id="path942" /><path
       style="fill:#1043b2;stroke:none;stroke-width:0;stroke-miterlimit:4;stroke-dasharray:none"
       d="m 214.89992,294.69268 c -3.84654,-1.89587 -5.02924,-4.32341 -6.2098,-12.74575 -0.58937,-4.20476 -1.3557,-9.63121 -1.70295,-12.05876 -1.03574,-7.24077 0.7923,-11.31623 5.96133,-13.2903 3.03188,-1.15789 3.3876,-1.15912 6.36515,-0.022 4.75814,1.81715 5.91875,4.26172 7.49802,15.79284 1.89005,13.80037 1.81421,16.49836 -0.54253,19.29919 -1.93872,2.30403 -5.4935,4.21396 -7.78848,4.18464 -0.69308,-0.009 -2.30442,-0.5308 -3.58074,-1.15988 z"
       id="path944" /></g></g></svg>
