<?xml version="1.0" encoding="UTF-8" standalone="no"?>
<svg
   xmlns:dc="http://purl.org/dc/elements/1.1/"
   xmlns:cc="http://creativecommons.org/ns#"
   xmlns:rdf="http://www.w3.org/1999/02/22-rdf-syntax-ns#"
   xmlns:svg="http://www.w3.org/2000/svg"
   xmlns="http://www.w3.org/2000/svg"
   version="1.1"
   id="Capa_1"
   x="0px"
   y="0px"
   viewBox="0 0 512 512"
   style="enable-background:new 0 0 512 512; fill:#bbb;"
   xml:space="preserve"><metadata
   id="metadata67"><rdf:RDF><cc:Work
       rdf:about=""><dc:format>image/svg+xml</dc:format><dc:type
         rdf:resource="http://purl.org/dc/dcmitype/StillImage" /><dc:title></dc:title></cc:Work></rdf:RDF></metadata><defs
   id="defs65"/>





<g
   id="g32">
</g>
<g
   id="g34">
</g>
<g
   id="g36">
</g>
<g
   id="g38">
</g>
<g
   id="g40">
</g>
<g
   id="g42">
</g>
<g
   id="g44">
</g>
<g
   id="g46">
</g>
<g
   id="g48">
</g>
<g
   id="g50">
</g>
<g
   id="g52">
</g>
<g
   id="g54">
</g>
<g
   id="g56">
</g>
<g
   id="g58">
</g>
<g
   id="g60">
</g>
<g
   id="g870"

   transform="translate(0.54764702,-0.32889668)"><path
     style="stroke-width:0.716084"
     d="m 24.696881,444.46613 c -5.794679,-1.91971 -10.036264,-4.64649 -14.488505,-9.3142 -6.0442481,-6.33676 -9.85033404,-15.18924 -9.85033404,-22.91062 0,-1.72948 7.73370634,-52.91177 17.18601404,-113.73842 9.452308,-60.82665 17.186014,-110.72362 17.186014,-110.88215 0,-0.15854 -1.757521,-1.45482 -3.905602,-2.88063 -12.15937,-8.07093 -19.402638,-21.68959 -19.228312,-36.1527 0.122485,-10.16202 8.991201,-79.96287 10.539348,-82.949466 1.763595,-3.402231 6.806259,-5.587959 10.404635,-4.509859 3.586796,1.07463 6.517866,4.320162 6.967572,7.715091 0.20146,1.520869 -1.795449,20.166055 -4.437576,41.433744 -4.215559,33.93296 -4.708117,39.14058 -4.022008,42.52301 2.148908,10.59386 10.012259,18.37308 19.435508,19.22754 2.363232,0.21429 4.300025,0.10319 4.303986,-0.24689 0.0039,-0.35009 2.71165,-22.58467 6.017088,-49.41017 3.965396,-32.181442 6.386527,-49.501991 7.117038,-50.914643 4.291105,-8.298089 17.592429,-5.154946 17.67056,4.175608 0.01117,1.331974 -2.629603,24.083109 -5.868357,50.558075 -3.238748,26.47497 -5.728707,48.29623 -5.533238,48.4917 0.195469,0.19547 2.139086,0.56504 4.319153,0.82126 10.090797,1.18598 21.006329,-6.31966 23.851185,-16.40034 0.57613,-2.04152 3.13969,-20.85391 5.69679,-41.8053 2.94458,-24.126213 5.04364,-38.856066 5.72485,-40.173382 2.25713,-4.364799 7.7394,-6.174343 12.23825,-4.039499 3.43578,1.630383 5.37436,4.808933 5.37778,8.817561 0.006,6.942597 -9.31446,78.92866 -10.79289,83.35887 -3.73838,11.20233 -11.57288,20.0601 -22.502333,25.44138 -2.363077,1.1635 -5.27668,2.32511 -6.474667,2.58137 l -2.178162,0.46592 -9.871117,108.64159 c -5.429112,59.75287 -10.175389,110.89725 -10.547277,113.65418 -1.537868,11.4007 -9.07592,21.60136 -19.686621,26.64036 -5.097474,2.42078 -6.097764,2.63857 -13.11041,2.85458 -5.909166,0.18202 -8.466612,-0.0559 -11.538362,-1.07357 z m 16.930429,-19.2051 c 3.815797,-1.81071 7.248538,-6.3066 8.063841,-10.56128 0.883914,-4.61273 20.485422,-220.16327 20.05969,-220.589 -0.455278,-0.45528 -15.612975,-2.15487 -15.97401,-1.79112 -0.443567,0.4469 -34.084523,217.27564 -34.084523,219.6877 0,5.20871 3.340876,10.57917 8.022801,12.89668 3.788023,1.87503 10.357942,2.04363 13.912201,0.35702 z"
     id="path892" /><path
     style="stroke-width:0.716084"
     d="m 240.6042,420.6292 c -22.66118,-2.35636 -47.72377,-11.36507 -66.95385,-24.06645 -36.48531,-24.0984 -60.2948,-61.45321 -67.00002,-105.1166 -1.45694,-9.48736 -1.6599,-30.80177 -0.37845,-39.74265 5.19989,-36.28032 20.20328,-65.85367 45.96749,-90.60703 35.9234,-34.51396 86.47782,-48.91443 135.44028,-38.58028 16.82982,3.55215 35.90703,11.44671 50.20772,20.77704 37.32777,24.35411 61.79212,62.52388 68.08181,106.22262 1.54505,10.73453 1.56697,30.83692 0.045,41.29488 -9.01449,61.94248 -54.1123,111.67992 -114.56805,126.35473 -15.62333,3.79235 -34.99181,5.11188 -50.84196,3.46374 z m 30.07552,-19.29665 c 19.79281,-2.26289 38.69577,-8.83866 55.66818,-19.36528 20.19344,-12.52438 38.14585,-32.50775 48.58166,-54.07772 24.46612,-50.56948 14.08369,-111.72917 -25.59789,-150.78922 -3.87396,-3.81327 -8.81587,-8.34724 -10.98202,-10.07547 -16.70479,-13.32766 -37.53138,-22.70287 -59.35654,-26.71971 -8.43979,-1.55331 -28.14671,-2.13863 -36.96991,-1.09805 -30.4268,3.58843 -57.31082,16.37343 -78.32874,37.25012 -51.8374,51.48908 -52.42143,134.29947 -1.31282,186.14617 21.24175,21.54851 49.32396,35.37299 78.5806,38.68411 7.7501,0.87711 22.24741,0.89909 29.71748,0.045 z"
     id="path894" /><path
     style="stroke-width:0.716084"
     d="m 241.32028,370.87185 c -38.44353,-5.93544 -70.03884,-32.91602 -81.89726,-69.93559 -5.80737,-18.12943 -6.40206,-36.20227 -1.80533,-54.86501 9.67193,-39.26805 41.87793,-69.20534 81.80452,-76.0419 12.98177,-2.22284 32.22124,-1.60406 36.45896,1.17261 4.21805,2.76377 5.63628,8.75476 3.06915,12.96493 -2.40113,3.93795 -3.2464,4.11043 -20.44403,4.17186 -14.75562,0.0527 -16.2025,0.17796 -22.83452,1.97685 -9.08183,2.46339 -21.4247,8.43497 -28.72352,13.89665 -40.18237,30.06838 -44.42094,88.64642 -8.98377,124.15775 22.32973,22.37644 54.73839,30.02438 84.69726,19.98723 28.14202,-9.42843 49.12,-33.56522 54.70899,-62.9469 1.53718,-8.081 1.52448,-22.16242 -0.0273,-30.32325 -1.3617,-7.16103 -4.60331,-16.79905 -7.74523,-23.02831 -2.40194,-4.76215 -2.43108,-8.22287 -0.0962,-11.42527 3.11949,-4.27851 9.95958,-5.15355 13.67585,-1.74954 2.49932,2.28931 8.30131,14.61893 10.55341,22.42669 2.99838,10.395 4.02238,17.78054 4.02238,29.01103 0,16.65696 -2.92214,29.46565 -10.04698,44.03916 -12.94895,26.48645 -35.73118,45.69201 -63.73194,53.72643 -13.27105,3.80794 -29.26392,4.85199 -42.65442,2.78458 z"
     id="path896" /><path
     style="stroke-width:0.716084"
     d="m 311.07657,202.98146 c -5.36929,-1.45312 -8.70443,-6.92239 -7.13012,-11.69262 1.2542,-3.80025 5.15376,-6.89723 8.68466,-6.89723 9.26738,0 13.36209,10.51314 6.50994,16.71424 -1.81934,1.64649 -5.63339,2.53354 -8.06448,1.87561 z"
     id="path898" /><path
     style="stroke-width:0.716084"
     d="m 471.1129,450.427 c -11.3026,-2.459 -20.38779,-10.50076 -24.7078,-21.8701 -1.86647,-4.91217 -43.13053,-339.82519 -42.66763,-346.304876 0.7342,-10.277208 9.05911,-18.586954 19.44706,-19.41164 8.47519,-0.672835 14.05581,2.309851 22.43408,11.990385 17.00534,19.648526 28.46945,44.320671 32.60794,70.176221 0.59888,3.74154 8.42323,66.68588 17.38745,139.87631 15.59554,127.33336 16.26177,133.28815 15.44533,138.04927 -2.30995,13.47061 -13.07906,24.67595 -26.43535,27.50621 -5.81914,1.2331 -7.79703,1.23138 -13.51108,-0.0117 z m 14.03544,-20.41937 c 3.73964,-1.90782 6.57645,-6.23241 6.93957,-10.57908 0.24602,-2.94481 -12.11367,-106.60793 -12.77696,-107.16288 -0.26266,-0.21976 -28.00531,3.09087 -28.22369,3.36803 -0.069,0.0876 0.9616,8.85973 2.29029,19.49357 1.3287,10.63385 4.3116,34.7049 6.62866,53.49123 4.61534,37.42025 4.63889,37.51816 9.79099,40.70233 5.14773,3.18147 10.03278,3.40002 15.35114,0.6868 z m -21.29835,-135.46555 13.43321,-1.58093 -0.36691,-2.18966 c -0.2018,-1.20432 -4.23213,-33.80223 -8.95628,-72.4398 -4.72416,-38.63756 -8.91757,-71.98917 -9.3187,-74.11468 -3.99584,-21.17347 -14.31757,-42.35949 -27.97947,-57.429693 -4.79026,-5.284055 -7.26573,-6.140009 -7.65659,-2.647457 -0.1632,1.458209 23.88351,200.19511 25.32185,209.27552 0.23395,1.47693 0.79983,2.69034 1.25752,2.69648 0.45769,0.006 6.87711,-0.70027 14.26537,-1.56978 z"
     id="path900" /></g></svg>
