<?xml version="1.0" encoding="UTF-8" standalone="no"?>
<svg
   xmlns:dc="http://purl.org/dc/elements/1.1/"
   xmlns:cc="http://creativecommons.org/ns#"
   xmlns:rdf="http://www.w3.org/1999/02/22-rdf-syntax-ns#"
   xmlns:svg="http://www.w3.org/2000/svg"
   xmlns="http://www.w3.org/2000/svg"
   height="512"
   viewBox="0 0 60 60"
   width="512"
   version="1.1"
    style="fill:#bbb"
   id="svg3">
  <metadata
     id="metadata9">
    <rdf:RDF>
      <cc:Work
         rdf:about="">
        <dc:format>image/svg+xml</dc:format>
        <dc:type
           rdf:resource="http://purl.org/dc/dcmitype/StillImage" />
        <dc:title></dc:title>
      </cc:Work>
    </rdf:RDF>
  </metadata>
  <defs
     id="defs7" />
  <path
     style=" stroke-width:0"
     d="M 18.341314,59.887039 C 14.170279,59.561375 10.16681,58.111541 7.7769285,56.061204 7.3842317,55.7243 7.3010564,55.685373 7.1475579,55.766647 7.0502774,55.818155 6.2976364,56.27284 5.4750222,56.777057 4.6524081,57.281273 3.8405199,57.752755 3.6708263,57.824794 3.4953999,57.899266 3.108872,57.957826 2.7748801,57.960531 1.732348,57.96898 0.79143063,57.381042 0.29141479,56.408732 0.03591091,55.911889 -0.02505962,54.918642 0.16533406,54.354798 0.44428143,53.528706 0.68830203,53.312217 2.9427123,51.890777 l 2.0979021,-1.322758 0.024018,-0.807591 c 0.01321,-0.444176 0.00454,-0.807591 -0.019277,-0.807591 -0.023812,0 -0.238284,0.147582 -0.4766046,0.32796 C 3.9841783,49.723243 3.3717213,49.908226 2.6610095,49.857001 0.61263003,49.70936 -0.54509163,47.396919 0.56208013,45.664583 0.73800263,45.389327 1.452984,44.747659 2.9464279,43.524723 l 2.1330786,-1.746711 0.00139,-1.132867 0.00139,-1.132868 -0.7876269,-0.52215 C 2.2617128,37.642399 0.80925673,35.750042 0.27778019,33.756664 L 0.08956547,33.050739 V 20.043746 7.0367531 L 0.31439462,6.4212618 C 0.65451293,5.4901555 1.021197,4.9351938 1.8518032,4.0944556 2.6978182,3.2381208 3.5426878,2.6487457 4.80083,2.0372355 9.8195753,-0.40208625 18.352673,-0.64295377 23.958874,1.4964529 c 3.117325,1.1896166 5.084687,2.9248082 5.805877,5.1207197 l 0.19292,0.5874127 0.0325,6.3776217 0.0325,6.377623 0.500146,0.239105 c 0.441149,0.210899 0.516861,0.224868 0.641841,0.118414 0.07793,-0.06638 4.314419,-3.552463 9.414419,-7.746849 5.1,-4.194385 10.480116,-8.6200001 11.955812,-9.8346998 1.548927,-1.2749794 2.879123,-2.30482438 3.146853,-2.43631366 0.402213,-0.19753664 0.564013,-0.22739466 1.219015,-0.22495252 0.657326,0.002451 0.819844,0.0341264 1.253517,0.24431726 0.657681,0.31876202 1.175004,0.85036602 1.496883,1.53820302 0.225526,0.4819394 0.262122,0.6544319 0.261721,1.2336263 -4.68e-4,0.5517722 -0.04106,0.7617899 -0.225293,1.1632058 C 59.56393,4.5233097 59.3638,4.8631699 59.242853,5.0091313 59.121906,5.1550925 53.57972,9.6771662 46.926887,15.058183 c -7.973882,6.449524 -12.082486,9.824028 -12.056225,9.902098 0.02191,0.06514 0.05286,1.679153 0.06878,3.586705 0.02516,3.015267 0.04512,3.462067 0.152787,3.420751 0.06812,-0.02614 4.606396,-2.811481 10.085069,-6.189652 5.478671,-3.37817 10.168413,-6.256306 10.421648,-6.395856 0.387253,-0.213405 0.573966,-0.258966 1.174826,-0.286674 0.942499,-0.04346 1.493468,0.155506 2.173165,0.784786 0.700754,0.648776 0.973892,1.270881 0.974409,2.219349 3.52e-4,0.605969 -0.03497,0.789041 -0.234638,1.216783 -0.129265,0.276924 -0.391502,0.663456 -0.582748,0.858961 -0.206456,0.211053 -1.304188,0.936604 -2.702036,1.785923 -1.294872,0.786751 -6.640327,4.027301 -11.878789,7.201224 l -9.524476,5.770767 -0.04392,6.121633 c -0.04259,5.936049 -0.04938,6.140949 -0.223975,6.758839 -0.9373,3.317085 -4.056084,5.995581 -8.455585,7.26189 -2.412026,0.694254 -5.451886,1.005114 -7.933861,0.811329 z m 4.858813,-2.078452 c 0.796579,-0.12722 2.755778,-0.58223 2.831035,-0.657487 0.01732,-0.01732 0.02181,-2.908876 0.01,-6.425687 l -0.02151,-6.394202 -8.475524,5.130643 c -4.661538,2.821853 -8.4887046,5.143081 -8.5048148,5.158285 -0.060255,0.05686 1.1474398,0.88857 1.8754448,1.291566 1.77761,0.984016 4.002418,1.653957 6.587413,1.983623 1.198332,0.152823 4.514007,0.102349 5.697973,-0.08674 z m 5.546781,-1.816093 c 1.743398,-0.949014 2.986537,-2.152262 3.708622,-3.589616 0.575031,-1.144634 0.578208,-1.185093 0.552281,-7.036629 l -0.02314,-5.222949 -2.493962,1.488684 -2.493962,1.488685 -0.0025,6.608391 c -0.0014,3.634616 0.02578,6.607861 0.06039,6.607211 0.03462,-7.03e-4 0.346154,-0.155348 0.692308,-0.343777 z M 3.8905516,55.498011 c 1.2063373,-0.693566 3.101409,-1.838145 20.7025104,-12.503839 7.338462,-4.446869 17.760839,-10.760125 23.160839,-14.02946 5.4,-3.269335 9.922028,-6.05761 10.048951,-6.196168 0.183927,-0.200786 0.230705,-0.332562 0.230455,-0.6492 -5.86e-4,-0.697523 -0.48121,-1.194479 -1.155309,-1.194479 -0.166679,0 -1.771399,0.948718 -5.358263,3.167831 -2.816178,1.742309 -15.075434,9.322512 -27.242791,16.844897 -15.0124404,9.28134 -22.1508782,13.739421 -22.210867,13.871083 -0.2479578,0.544208 0.1409932,1.237372 0.7135869,1.271709 0.048785,0.0029 0.5486844,-0.259143 1.1108877,-0.582374 z M 16.547037,43.489206 26.061594,37.605994 v -1.721683 -1.721685 l -0.23077,0.04973 c -0.126923,0.02735 -0.665035,0.143109 -1.195804,0.257236 -2.961305,0.63674 -6.442377,0.61943 -9.566434,-0.04757 -2.797933,-0.597369 -5.5986157,-1.925538 -7.4895101,-3.55175 L 6.9287263,30.310957 v 9.530729 c 0,5.241903 0.023345,9.530731 0.051878,9.530731 0.028533,0 4.3334267,-2.647445 9.5664327,-5.883211 z m -12.3972667,3.722372 0.9239586,-0.734266 0.00442,-1.078907 c 0.00378,-0.922145 -0.013732,-1.071943 -0.1205205,-1.030963 -0.2412076,0.09256 -2.7120712,2.195908 -2.8035452,2.386545 -0.273519,0.570036 0.1401476,1.181498 0.8043028,1.188883 0.212097,0.0024 0.4585799,-0.148937 1.1913824,-0.731292 z M 5.0825724,31.265836 c 0,-5.746259 0.00563,-5.95905 0.1735604,-6.565063 0.2386903,-0.861343 0.6763408,-1.657791 1.2624312,-2.297406 l 0.4940784,-0.5392 V 18.682533 15.500898 L 6.3405386,15.223406 C 5.0635159,14.696161 3.64628,13.794793 2.524996,12.796707 L 2.0196354,12.346873 1.9983163,22.387857 c -0.023066,10.863632 -0.033794,10.569018 0.4263482,11.708215 0.2810035,0.695694 0.6875493,1.350302 1.187097,1.911428 0.402518,0.452134 1.2784922,1.196924 1.4078739,1.197033 0.034615,2.9e-5 0.062937,-2.672385 0.062937,-5.938697 z m 25.4964086,3.547141 2.446502,-1.51049 5.86e-4,-1.496189 5.86e-4,-1.496191 -0.566433,0.516218 c -1.033977,0.942311 -2.636099,1.920106 -4.237762,2.58636 l -0.23077,0.09599 v 1.435365 c 0,0.789452 0.03168,1.422779 0.07041,1.407394 0.0387,-0.01538 1.171304,-0.707692 2.51688,-1.538461 z m -8.293612,-1.899128 c 0.879282,-0.0948 2.49487,-0.38757 2.665444,-0.483029 0.0743,-0.04158 -0.188075,-0.334799 -0.829025,-0.926504 l -0.937724,-0.865675 -0.386411,0.05067 c -0.212525,0.02787 -0.631864,0.08836 -0.931864,0.134432 -0.808778,0.124193 -3.111723,0.104223 -4.027972,-0.03493 -1.633517,-0.248086 -3.139738,-0.818585 -4.160308,-1.575769 -0.627799,-0.465779 -1.04976,-0.971149 -1.354897,-1.622717 -0.193895,-0.414032 -0.233047,-0.610416 -0.233047,-1.168963 0,-0.571956 0.03641,-0.745858 0.24597,-1.174825 0.313124,-0.640958 1.083299,-1.415148 1.872911,-1.882676 0.334616,-0.198125 0.608392,-0.371801 0.608392,-0.385948 0,-0.01415 -0.48886,-0.481532 -1.086355,-1.038636 l -1.086355,-1.012913 -0.73882,0.260085 c -1.659966,0.584354 -3.1717574,1.494972 -3.9498756,2.379185 -0.1968501,0.223691 -0.4781,0.650851 -0.6249997,0.949247 -0.2221255,0.451201 -0.2729362,0.664809 -0.3018149,1.268832 -0.029309,0.613022 -0.00253,0.818871 0.1717132,1.319905 1.0876998,3.127681 6.062245,5.644927 11.728395,5.934867 0.759973,0.03889 2.407134,-0.02228 3.356643,-0.124642 z m 6.335665,-1.797502 c 1.943846,-0.96272 3.340965,-2.198911 4.009138,-3.547339 0.346075,-0.698405 0.354498,-0.73554 0.354498,-1.562659 0,-0.783765 -0.02014,-0.888168 -0.26882,-1.393301 -1.689617,-3.4321 -9.140029,-5.403842 -16.603551,-4.394107 -0.550966,0.07454 -1.031781,0.163612 -1.06848,0.19794 -0.0367,0.03433 0.381546,0.481743 0.929433,0.99426 l 0.996161,0.931844 0.790845,-0.137524 c 1.106232,-0.192368 3.525339,-0.186253 4.650986,0.01176 1.10935,0.195143 2.453375,0.645659 3.227886,1.081984 0.878038,0.494647 1.692102,1.311203 2.033793,2.040018 0.224829,0.479552 0.27129,0.679253 0.27129,1.166065 0,1.141938 -0.777878,2.265376 -2.119087,3.060459 -0.590287,0.349929 -0.608178,0.369773 -0.46154,0.511943 0.0839,0.08135 0.530175,0.490382 0.991713,0.908965 0.631579,0.572798 0.880677,0.749797 1.006994,0.715523 0.09231,-0.02505 0.658741,-0.288669 1.258741,-0.585828 z m -6.755245,-2.233973 c 1.533475,-0.193337 2.974138,-0.777596 3.703618,-1.501996 0.651985,-0.647447 0.625969,-1.199372 -0.08802,-1.867221 -0.951846,-0.890341 -2.675293,-1.434615 -4.874344,-1.539341 -1.914324,-0.09117 -3.655679,0.209102 -5.023372,0.866201 -1.207556,0.580164 -1.742727,1.234946 -1.570432,1.921424 0.102736,0.409333 0.707537,0.94742 1.5094,1.342906 1.671357,0.824325 3.853251,1.091948 6.343146,0.778027 z m 17.060723,-9.789193 c 2.685834,-2.161274 7.149067,-5.754431 9.918298,-7.984796 2.769231,-2.2303654 5.909884,-4.7575063 6.97923,-5.6158685 1.069346,-0.8583622 2.003962,-1.6608905 2.076923,-1.7833963 0.197259,-0.3312054 0.169909,-0.913774 -0.05889,-1.254363 -0.231081,-0.3439881 -0.731921,-0.5450176 -1.158477,-0.464995 -0.226415,0.042476 -2.297979,1.6996885 -9.100928,7.2805727 -4.844284,3.9740681 -10.16723,8.3400941 -11.828768,9.7022781 -1.661538,1.362184 -3.033779,2.510386 -3.049424,2.551558 -0.0229,0.06027 1.22108,1.475312 1.312945,1.493498 0.01417,0.0028 2.223258,-1.763216 4.90909,-3.924488 z M 9.5274803,20.170955 c 2.7379077,-1.382091 6.3079247,-2.099238 10.4501967,-2.099238 2.745061,0 4.973222,0.270929 7.243817,0.880795 0.430254,0.115563 0.798436,0.210114 0.818182,0.210114 0.01975,0 0.0359,-1.529369 0.0359,-3.3986 0,-1.869231 -0.02253,-3.398602 -0.05007,-3.398602 -0.02754,0 -0.301316,0.230364 -0.608391,0.51192 -1.529219,1.402129 -4.076123,2.674328 -6.72157,3.357476 -3.403202,0.878828 -7.184383,0.947217 -10.566919,0.191122 C 9.6039573,16.308663 9.1224888,16.192679 9.0586966,16.1682 c -0.096843,-0.03716 -0.1159863,0.310148 -0.1159863,2.10433 0,1.181862 0.019958,2.148838 0.044351,2.148838 0.024393,0 0.2675799,-0.112685 0.540417,-0.250413 z M 18.107169,14.795673 C 22.914017,14.096536 26.885051,11.778818 27.841844,9.1139733 28.083947,8.4396647 28.08012,7.5281568 27.832516,6.8920175 27.428215,5.8533097 26.491005,4.9095613 25.04246,4.0824974 24.256747,3.6338845 22.599186,2.9397901 22.415417,2.9824373 c -0.12215,0.028348 -2.228606,1.913081 -2.22695,1.9925454 5.86e-4,0.026281 0.229208,0.1731482 0.508134,0.3263705 0.764398,0.4199063 1.618007,1.2680168 1.94494,1.9324133 0.240811,0.4893769 0.272849,0.6349762 0.270213,1.2280453 -0.0026,0.5914691 -0.03704,0.7414112 -0.284502,1.2397924 -0.727932,1.4660228 -2.636742,2.5919438 -5.167055,3.0478118 -1.146546,0.206566 -3.7038,0.211077 -4.811697,0.0085 l -0.783726,-0.143313 -0.936554,0.857305 c -0.515104,0.471518 -0.9476707,0.883071 -0.9612577,0.914563 -0.04734,0.10973 2.4891937,0.523246 3.7589697,0.6128 0.942675,0.06648 3.266939,-0.04152 4.38124,-0.203592 z M 8.8047635,12.852064 C 9.3190969,12.381255 9.7481353,11.975311 9.7581823,11.949967 9.7682293,11.924623 9.5416563,11.771961 9.2546854,11.610721 8.5993193,11.242489 7.6212872,10.273316 7.3487656,9.7220682 7.1915483,9.4040526 7.133756,9.1330272 7.1100183,8.6024258 7.0803464,7.9391818 7.0943505,7.8707769 7.3763026,7.3017268 8.1740828,5.6916069 10.097055,4.5935361 12.829483,4.1878095 c 1.111392,-0.1650257 3.121768,-0.1667994 4.203819,-0.00371 0.457518,0.068958 0.882306,0.1253791 0.943974,0.1253791 0.108656,0 2.104743,-1.7499262 2.119128,-1.8577939 0.0086,-0.064877 -0.227325,-0.1092098 -1.587259,-0.2981956 C 17.187856,1.969876 13.139233,1.9443805 11.795859,2.1112155 5.0572253,2.9480938 1.0459147,5.8426845 2.1650832,9.060853 c 0.4035239,1.160333 1.4047764,2.313368 2.8393842,3.269815 0.8305274,0.55371 2.4358918,1.367783 2.7093869,1.373919 0.085666,0.0019 0.5765757,-0.381713 1.0909092,-0.852523 z m 8.5271605,-2.036165 c 2.118001,-0.430647 3.694704,-1.4114435 3.694704,-2.2983132 0,-1.0544714 -1.855778,-2.1220318 -4.254969,-2.4477261 -1.133561,-0.1538829 -3.544082,-0.064805 -4.472304,0.1652688 -2.284421,0.5662281 -3.5948998,1.5876688 -3.2761302,2.5535499 0.1243174,0.3766841 0.7784065,0.9822228 1.3983822,1.2945846 0.651193,0.328091 1.686015,0.648232 2.465161,0.762641 0.346154,0.05083 0.723776,0.108911 0.839161,0.129069 0.436993,0.07635 3.005399,-0.03696 3.605995,-0.159074 z"
     id="path834" />
</svg>
